<svg version="1.2" xmlns="http://www.w3.org/2000/svg" viewBox="0 0 664 664" width="664" height="664">
	<title>logo-square-svg</title>
	<style>
		.s0 { fill: #ffffff } 
	</style>
	<g id="Layer_1">
	</g>
	<g id="Layer_2">
		<g id="Layer">
			<g id="Layer">
				<g id="Layer">
					<path id="Layer" class="s0" d="m48.1 407.4h-29.5v-16c26.8 0 49.5 0 76.5 0v16h-29.5v77h-17.5z"/>
					<path id="Layer" fill-rule="evenodd" class="s0" d="m179.7 466.9h-48.6l-8 17.5h-19l41.7-93h19.2l41.7 93h-19.2zm-24.3-55.9l-17.2 39.6h34.5z"/>
					<path id="Layer" class="s0" d="m298.9 472.7c-9.5 9.4-21.9 13.8-35.3 13.8-34.5 0-49.1-23.8-49.2-47.9-0.2-24.3 15.6-49 49.2-49 12.6 0 24.6 4.7 34.2 14.2l-11.7 11.3c-6.2-6-14.4-8.8-22.5-8.8-22.4 0-32.1 16.7-32 32.3 0.1 15.4 9 31.4 32 31.4 8.1 0 17.3-3.3 23.4-9.4z"/>
					<path id="Layer" fill-rule="evenodd" class="s0" d="m408.1 438.4c-0.3 24.1-15 48.1-47.7 48.1-32.7 0-47.8-23.5-47.8-47.9 0-24.5 15.7-49 47.8-49 32 0 48 24.5 47.7 48.8zm-78.2 0.4c0.4 15.3 8.6 31.7 30.5 31.7 21.9 0 30.2-16.5 30.4-31.8 0.3-15.7-8.5-33.2-30.4-33.2-21.9 0-30.9 17.7-30.5 33.3z"/>
					<path id="Layer" class="s0" d="m509.9 417.1l-30.3 40.3h-3.4l-29.6-40.5v67.6h-17.5v-92.9h20.1l29.1 39.9 29.1-39.9h20v92.9h-17.5c0 0 0-67.4 0-67.4z"/>
					<path id="Layer" fill-rule="evenodd" class="s0" d="m617.9 466.9h-48.6l-8 17.5h-19l41.7-93h19.1l41.7 93h-19.1zm-24.3-55.9l-17.2 39.6h34.5z"/>
				</g>
				<g id="Layer">
					<g id="Layer">
						<path id="Layer" class="s0" d="m126 530.6h-3.7l-2.8-7.1-2.4-7.2-2.4 7.3-2.7 7h-3.6l-8.4-22.7h4.8l5.4 16.4 5.5-16.4h2.8l5.6 16.4 5.2-16.4h4.8z"/>
						<path id="Layer" class="s0" d="m160.1 530.6h-16.9q0-11.3 0-22.7h16.9v4.2h-12.7v5.2h12.3v4h-12.3v5.1h12.7z"/>
						<path id="Layer" fill-rule="evenodd" class="s0" d="m188.4 514.5c0 1.8-0.9 3.4-3 4.4 2.7 0.8 3.6 3.6 3.6 5 0 5.1-3.8 6.7-8.5 6.7-3.6 0-7.1 0-10.7 0v-22.7q5.3 0 10.7 0c4.5 0 7.9 2 7.9 6.6zm-14.4 2.5h6.5c2.7 0 3.6-1.1 3.6-2.4 0-1-0.8-2.8-3.6-2.8h-6.5zm0 9.6h6.5c1.8 0 4.3-0.6 4.3-2.7 0-2-2.5-3.1-4.3-3.1h-6.5z"/>
						<path id="Layer" fill-rule="evenodd" class="s0" d="m231.5 519.1c0.1 5.7-3.4 11.5-11.3 11.5-2.8 0-6.2 0-8.9 0v-22.7c2.8 0 6.1 0 8.9 0 7.8 0 11.2 5.6 11.3 11.2zm-16 7.4h4.7c5.1 0 7.2-3.8 7.1-7.5-0.1-3.5-2.2-7-7.1-7h-4.7z"/>
						<path id="Layer" class="s0" d="m257.7 530.6h-16.9q0-11.3 0-22.7h16.9v4.2h-12.7v5.2h12.3v4h-12.3v5.1h12.7z"/>
						<path id="Layer" class="s0" d="m282.2 513.4c-0.8-1.3-2.9-2.5-5.4-2.5-3.2 0-4.7 1.3-4.7 3 0 2 2.3 2.5 5.1 2.8 4.7 0.6 9.1 1.8 9.1 7.3 0 5-4.5 7.2-9.5 7.2-4.7 0-8.2-1.4-9.9-5.6l3.6-1.8c1 2.5 3.6 3.6 6.3 3.6 2.7 0 5.3-1 5.3-3.4 0-2.2-2.3-3-5.3-3.4-4.6-0.5-8.9-1.7-8.9-6.8 0-4.7 4.6-6.6 8.8-6.6 3.5 0 7.2 1 8.9 4.5z"/>
						<path id="Layer" class="s0" d="m296.1 530.6v-22.7h4.3v22.7z"/>
						<path id="Layer" class="s0" d="m327.7 513.5c-1.5-1.5-3.8-2.3-5.8-2.3-4.8 0-7.8 3.7-7.8 8.4 0 3.7 2.2 7.5 7.8 7.5 1.8 0 3.4-0.3 5.2-1.8v-4h-5.8v-3.8h9.7v9.5c-2.3 2.6-5.1 4.1-9.1 4.1-8.5 0-11.9-5.6-11.9-11.6 0-6.3 3.9-12.2 11.9-12.2 3.1 0 6.1 1.1 8.5 3.4z"/>
						<path id="Layer" class="s0" d="m355.9 507.9h4.3v22.7h-2.7v0.1l-11.9-15.4v15.3h-4.3v-22.7h3.5l11.1 14.1z"/>
						<path id="Layer" fill-rule="evenodd" class="s0" d="m399.7 526.3h-11.9l-1.9 4.3h-4.7l10.2-22.7h4.7l10.2 22.7h-4.7zm-5.9-13.6l-4.3 9.6h8.5z"/>
						<path id="Layer" class="s0" d="m429.6 507.9h4.3v22.7h-2.7v0.1l-11.9-15.4v15.3h-4.3v-22.7h3.5l11.1 14.1z"/>
						<path id="Layer" fill-rule="evenodd" class="s0" d="m464.2 519.1c0.1 5.7-3.4 11.5-11.3 11.5-2.8 0-6.1 0-8.9 0v-22.7c2.8 0 6.1 0 8.9 0 7.7 0 11.2 5.6 11.3 11.2zm-16 7.4h4.7c5.1 0 7.2-3.8 7.1-7.5-0.1-3.5-2.2-7-7.1-7h-4.7z"/>
						<path id="Layer" class="s0" d="m500.5 513.4c-0.7-1.3-2.9-2.5-5.3-2.5-3.2 0-4.7 1.3-4.7 3 0 2 2.3 2.5 5 2.8 4.7 0.6 9.2 1.8 9.2 7.3 0 5-4.5 7.2-9.6 7.2-4.6 0-8.2-1.4-9.9-5.6l3.6-1.8c1 2.5 3.6 3.6 6.4 3.6 2.7 0 5.2-1 5.2-3.4 0-2.2-2.2-3-5.2-3.4-4.7-0.5-8.9-1.7-8.9-6.8 0-4.7 4.6-6.6 8.7-6.6 3.6 0 7.2 1 8.9 4.5z"/>
						<path id="Layer" class="s0" d="m531.4 530.6h-17q0-11.3 0-22.7h17v4.2h-12.8v5.2h12.3v4h-12.3v5.1h12.8z"/>
						<path id="Layer" fill-rule="evenodd" class="s0" d="m563.4 519.4c0 5.9-3.6 11.7-11.6 11.7-8 0-11.7-5.7-11.7-11.7 0-5.9 3.9-11.9 11.7-11.9 7.8 0 11.7 6 11.6 11.9zm-19.1 0.1c0.1 3.7 2.2 7.7 7.5 7.7 5.3 0 7.4-4 7.4-7.7 0.1-3.9-2.1-8.1-7.4-8.1-5.4 0-7.6 4.3-7.5 8.1z"/>
					</g>
					<g id="Layer">
						<g id="Layer">
							<path id="Layer" class="s0" d="m570.6 517.4h74.2v3.6h-74.2z"/>
							<path id="Layer" class="s0" d="m18.6 517.4h74.2v3.6h-74.2z"/>
						</g>
					</g>
				</g>
			</g>
			<g id="Layer">
				<g id="Layer">
					<path id="Layer" fill-rule="evenodd" class="s0" d="m444.5 254.3q0 0 0 0zm0 0c0 0 0 23.9 0 23.9q-40.5 11.3-81.1 22.7v67.3h-13.7v-183c-10.8 43.9-25.6 85.8-58.5 118.8 36.2-46.4 54.2-99.5 58.9-158.4h56.9c0.4 40.8 0.9 80.7 1.3 121.4 12.2-4.3 24-8.4 36.2-12.7zm-49.6-49c-2.7 12.2-5.6 24.6-10 36.5-5.7 15.6-13.8 30.7-18 32.7 8.2-15.9 14.8-32.4 19.3-49.8 4.5-17.4 7.9-45 7.4-66.2l-32.1-0.2c0.4 38.2 0.8 87.2 1.2 124.9 11.3-4 21.7-7.6 32.2-11.3z"/>
					<path id="Layer" fill-rule="evenodd" class="s0" d="m247.6 287.2c-4.7 14.9-10.2 29.2-21.2 40.7 7-12.5 12.2-25.6 15.5-39.5 3.4-13.7 5.4-27.7 5.6-42.7l36.9 0.1c0.4 21.9 0.8 43.1 1.2 64.9 20.1-7.1 39.7-14.1 59.7-21.2v16.3c-28.8 8.1-57.8 16.3-87.1 24.5 0.1 12.7 0.8 25.3 0.7 37.9h-11.3c0 0 0-81 0-81zm10.5 33.3c6-2.2 11.2-4 16.4-5.9v-19.8c-2.4 4.3-4.2 7.9-6.3 11.4-4.1 6.6-5.3 8-8.5 9.2 10.9-16.6 15-42.3 15.1-59.9 0 0-14.3 0.9-17.6 0.9-0.2 17.1 0.4 46.4 0.9 64.1z"/>
					<path id="Layer" class="s0" d="m409.2 368.2h-13.7v-70.1q6.4-1.8 12.8-3.6c0.1 9.3 0.7 51.6 0.9 73.7z"/>
					<path id="Layer" class="s0" d="m322.9 368.2h-13v-46.2q6.2-1.7 12.3-3.5c0.2 7.2 0.8 34.9 0.7 49.7z"/>
					<path id="Layer" class="s0" d="m285.8 328.8v39.4h-10.7v-36.4q5.4-1.5 10.7-3z"/>
					<path id="Layer" class="s0" d="m242.9 326c-7.9 2.9-16.8 5.9-24.5 8.7v6.7c7.9-2.2 16.7-4.6 24.5-6.8z"/>
				</g>
			</g>
		</g>
	</g>
</svg>