<svg width="23" height="24" viewBox="0 0 23 24" fill="none" xmlns="http://www.w3.org/2000/svg">
<path d="M18.0798 22.9253C14.0218 21.2501 10.3805 18.8043 7.33304 15.7568C4.28553 12.7094 1.83972 9.06815 0.164537 5.01009C-0.264079 3.97588 0.172462 2.78444 1.15155 2.23786L3.04292 1.18795L4.5136 0.369996C5.62247 -0.243451 7.01842 0.185163 7.58467 1.31773L8.97277 4.09781C9.40528 4.95503 9.23623 5.98917 8.55987 6.66553L6.87689 8.34849C7.95824 9.87026 9.16546 11.2976 10.4788 12.611C11.7922 13.9244 13.2196 15.1315 14.7414 16.2129L16.4243 14.53C17.1007 13.8536 18.1348 13.6845 18.9921 14.117L21.7722 15.5051C22.9047 16.0714 23.3333 17.4673 22.7199 18.5762L21.9019 20.0469L20.852 21.9382C20.3054 22.9174 19.114 23.3539 18.0798 22.9253Z" fill="white"/>
</svg>
