<svg width="17" height="24" viewBox="0 0 17 24" fill="none" xmlns="http://www.w3.org/2000/svg">
<path fill-rule="evenodd" clip-rule="evenodd" d="M8.5 7.05859C7.32629 7.05859 6.375 8.02387 6.375 9.21484C6.375 10.4058 7.32629 11.3711 8.5 11.3711C9.67371 11.3711 10.625 10.4058 10.625 9.21484C10.625 8.02387 9.67371 7.05859 8.5 7.05859ZM8.5 12.8086C6.54429 12.8086 4.95833 11.2 4.95833 9.21484C4.95833 7.22965 6.54429 5.62109 8.5 5.62109C10.4557 5.62109 12.0417 7.22965 12.0417 9.21484C12.0417 11.2 10.4557 12.8086 8.5 12.8086ZM8.5 0.589844C3.80588 0.589844 0 4.45169 0 9.21484C0 12.8215 7.08687 23.5977 8.5 23.5898C9.89117 23.5977 17 12.7727 17 9.21484C17 4.45169 13.1941 0.589844 8.5 0.589844Z" fill="white"/>
</svg>
